<?xml version="1.0" standalone="no"?>
<!DOCTYPE svg PUBLIC "-//W3C//DTD SVG 20010904//EN"
 "http://www.w3.org/TR/2001/REC-SVG-20010904/DTD/svg10.dtd">
<svg version="1.0" xmlns="http://www.w3.org/2000/svg"
 width="600.000000pt" height="600.000000pt" viewBox="0 0 600.000000 600.000000"
 preserveAspectRatio="xMidYMid meet">
<g transform="translate(0.000000,600.000000) scale(0.100000,-0.100000)"
fill="#000000" stroke="none">
<path d="M1825 4727 c-15 -23 -17 -97 -3 -97 3 0 4 -9 1 -20 -5 -19 -19 -26
-63 -35 -50 -10 -61 -73 -19 -107 26 -22 41 -22 79 -3 l28 15 18 -48 c17 -43
44 -84 44 -66 0 4 7 -1 16 -12 8 -10 13 -13 9 -6 -4 7 1 12 14 12 40 0 59 63
36 121 -7 19 46 46 66 33 7 -4 10 -3 6 3 -3 5 3 16 14 23 25 18 25 71 1 93
-23 21 -54 21 -94 1 -16 -9 -27 -11 -24 -6 4 6 2 13 -3 16 -4 3 -11 20 -15 37
-12 61 -82 90 -111 46z m59 -3 c9 -3 23 -31 32 -61 14 -49 14 -57 1 -70 -24
-24 -63 -9 -70 26 -3 16 -9 40 -12 53 -4 17 -1 31 10 42 19 18 18 18 39 10z
m184 -142 c-2 -22 -11 -29 -48 -39 -63 -19 -92 -10 -88 25 3 23 11 30 53 43
61 20 88 10 83 -29z m-193 -23 c4 -5 4 -21 1 -34 -5 -19 -17 -26 -62 -36 -52
-12 -58 -11 -70 6 -9 12 -10 23 -3 36 16 30 120 52 134 28z m90 -95 c17 -60
10 -84 -25 -84 -24 0 -35 16 -48 70 -13 51 -3 70 34 70 19 0 25 -9 39 -56z"/>
<path d="M3884 4682 c-11 -10 -23 -24 -26 -32 -6 -18 18 -70 32 -70 6 0 10 -7
10 -16 0 -8 4 -13 8 -10 5 3 9 -1 9 -8 0 -8 -6 -12 -14 -9 -7 3 -13 1 -13 -4
0 -6 -9 -20 -20 -33 -25 -29 -25 -38 3 -72 26 -32 32 -31 119 11 90 44 132 84
123 119 -9 37 -30 58 -84 85 -25 12 -48 24 -51 27 -7 7 -59 30 -68 30 -4 -1
-16 -9 -28 -18z m126 -57 c117 -68 116 -79 -6 -149 -67 -39 -90 -47 -103 -39
-31 19 -25 50 16 77 21 14 43 26 50 26 25 0 12 16 -37 42 -38 21 -50 34 -50
51 0 51 30 49 130 -8z"/>
<path d="M3046 4289 c4 -7 1 -10 -7 -7 -25 8 -108 -73 -116 -113 -3 -16 -9
-29 -14 -29 -5 0 -9 -12 -9 -26 0 -14 -16 -109 -34 -212 -19 -103 -42 -225
-50 -272 -9 -47 -20 -105 -26 -130 -13 -58 -52 -288 -53 -317 -1 -13 -5 -23
-8 -23 -4 0 -7 -10 -7 -22 -1 -13 -5 -45 -10 -73 -6 -27 -17 -90 -26 -140 -9
-49 -18 -101 -21 -115 -2 -14 -12 -63 -20 -110 -9 -47 -23 -119 -32 -160 -44
-214 -49 -309 -19 -360 59 -102 121 -135 224 -116 35 6 60 15 56 19 -4 4 0 7
8 7 9 0 28 15 42 33 15 17 30 37 35 43 20 25 31 55 31 83 0 16 4 41 10 55 5
13 10 45 11 70 2 25 6 46 10 46 4 0 9 19 11 43 9 78 41 256 47 252 6 -3 8 8
12 88 1 30 5 43 11 35 5 -8 8 -3 7 17 -1 17 3 57 10 90 6 33 13 74 15 90 2 17
9 50 15 75 10 44 35 169 47 240 8 50 24 137 36 195 5 28 9 62 9 78 -1 15 3 27
7 27 5 0 10 20 10 45 1 25 9 64 17 88 8 23 15 53 15 66 0 13 4 40 9 60 42 162
35 259 -25 319 -17 17 -29 32 -26 32 3 0 -11 9 -33 20 -44 23 -182 30 -169 9z
m178 -47 c75 -53 92 -126 61 -275 -28 -138 -276 -1468 -305 -1640 -28 -160
-73 -224 -171 -242 -86 -16 -185 48 -209 134 -12 45 6 152 215 1276 24 132 60
326 79 430 43 232 50 256 91 295 67 65 165 74 239 22z"/>
<path d="M3091 4176 c-56 -18 -67 -45 -105 -256 -19 -107 -57 -316 -85 -465
-172 -934 -211 -1152 -211 -1184 0 -69 54 -111 116 -91 18 6 39 21 47 33 8 12
31 112 51 222 21 110 62 328 91 485 160 851 215 1152 215 1180 0 59 -59 96
-119 76z m81 -44 c17 -17 18 -25 7 -93 -6 -41 -14 -81 -17 -89 -3 -8 -6 -24
-7 -35 -2 -29 -25 -155 -35 -190 -5 -16 -11 -48 -14 -70 -5 -40 -34 -202 -40
-220 -1 -5 -6 -32 -10 -60 -4 -27 -12 -63 -16 -80 -5 -16 -11 -48 -14 -70 -6
-46 -39 -228 -66 -365 -18 -92 -34 -178 -65 -345 -34 -188 -46 -251 -49 -260
-2 -5 -4 -14 -6 -20 -4 -21 -20 -31 -55 -33 -52 -4 -74 21 -70 78 3 46 30 208
45 270 5 19 14 69 20 110 7 41 21 120 33 175 11 55 21 114 23 130 3 30 24 145
63 343 11 57 20 107 19 110 -4 17 15 101 22 97 4 -2 5 6 3 19 -3 12 2 52 10
87 14 59 22 95 33 159 29 169 64 342 70 352 19 30 86 30 116 0z"/>
<path d="M2772 3050 c0 -14 2 -19 5 -12 2 6 2 18 0 25 -3 6 -5 1 -5 -13z"/>
<path d="M2652 2420 c0 -14 2 -19 5 -12 2 6 2 18 0 25 -3 6 -5 1 -5 -13z"/>
<path d="M3565 4028 c-51 -28 -54 -39 -55 -260 0 -133 3 -209 10 -213 6 -3 7
-11 4 -17 -4 -7 -2 -8 4 -4 7 4 12 3 12 -2 0 -7 39 -31 60 -37 3 -1 22 -9 44
-18 21 -9 44 -17 51 -17 7 0 18 -7 25 -15 7 -8 19 -15 27 -15 8 0 27 -8 41
-18 15 -10 59 -28 97 -41 39 -13 98 -38 132 -56 35 -18 60 -28 57 -23 -3 5 20
-5 50 -22 31 -16 56 -27 56 -25 0 3 22 -6 50 -20 27 -14 53 -26 57 -26 5 -1
18 -6 30 -12 18 -8 20 -13 12 -24 -6 -7 -19 -13 -28 -13 -9 0 -22 -5 -27 -10
-6 -6 -20 -12 -31 -14 -12 -3 -48 -18 -81 -34 -33 -17 -63 -28 -66 -24 -3 3
-6 0 -6 -7 0 -7 -4 -10 -8 -7 -5 3 -30 -6 -58 -19 -27 -12 -78 -35 -114 -50
-36 -15 -67 -31 -70 -35 -3 -4 -51 -25 -107 -47 -57 -22 -100 -43 -96 -47 4
-4 0 -4 -8 -1 -9 3 -22 -1 -29 -10 -7 -8 -18 -15 -24 -15 -7 0 -24 -12 -38
-27 -25 -28 -25 -28 -27 -234 -2 -178 0 -207 14 -219 9 -7 14 -19 11 -25 -8
-23 95 -12 131 13 19 14 38 20 49 15 12 -4 15 -3 10 5 -4 7 -1 12 7 12 8 0 39
14 70 30 31 17 66 30 77 30 12 0 19 4 16 8 -3 5 11 14 31 21 20 8 46 22 57 32
11 11 30 19 43 19 16 0 22 4 17 12 -4 6 -3 8 3 5 13 -8 80 18 105 40 9 8 22
12 27 8 6 -3 11 -2 11 2 0 11 84 53 105 53 8 0 15 3 15 8 0 4 19 16 43 26 105
49 295 139 322 154 17 8 37 19 45 22 8 4 29 14 46 23 17 9 35 13 39 9 5 -4 5
-1 1 6 -5 7 -1 12 9 12 22 0 97 59 90 70 -3 5 1 10 7 12 15 5 26 346 12 376
-4 9 -8 19 -8 22 -9 34 -48 61 -186 127 -85 41 -186 90 -225 109 -38 19 -76
34 -83 34 -7 0 -10 5 -6 12 4 7 3 8 -5 4 -11 -7 -91 39 -99 57 -2 4 -8 7 -13
7 -6 0 -7 -4 -4 -10 9 -14 -23 -1 -74 32 -25 15 -51 28 -58 28 -7 0 -13 5 -13
10 0 6 -12 10 -26 10 -16 0 -23 4 -18 12 4 6 3 8 -3 5 -6 -4 -41 9 -78 28 -37
19 -74 35 -81 35 -8 0 -14 5 -14 11 0 5 -4 8 -8 5 -5 -3 -24 5 -43 17 -19 13
-53 29 -76 37 -23 7 -40 17 -36 23 3 6 2 7 -4 4 -5 -4 -45 12 -87 33 -87 44
-83 44 -111 28z m398 -192 c898 -428 899 -428 918 -460 17 -27 19 -53 19 -204
0 -129 -4 -180 -14 -200 -17 -32 4 -22 -726 -372 -621 -298 -563 -273 -595
-258 l-25 11 0 211 c0 116 4 216 8 222 7 10 704 322 821 367 30 12 48 23 40
26 -17 5 -319 134 -449 191 -52 23 -147 64 -210 90 -63 27 -136 58 -162 70
l-48 21 0 219 c0 198 2 220 18 229 9 6 27 9 40 6 12 -3 176 -79 365 -169z"/>
<path d="M3620 3750 c0 -120 3 -150 14 -150 11 0 321 -132 646 -275 41 -18
113 -49 160 -70 95 -41 123 -65 111 -96 -7 -20 -80 -53 -796 -368 l-130 -57
-3 -147 c-1 -81 -1 -147 1 -147 6 0 172 79 667 318 223 107 425 204 450 215
81 36 80 32 80 196 0 80 -4 151 -8 157 -4 7 -108 60 -232 119 -124 59 -342
164 -485 233 -284 136 -466 222 -471 222 -2 0 -4 -67 -4 -150z m55 100 c3 -5
13 -6 22 -3 10 4 14 2 10 -4 -3 -5 17 -20 46 -33 29 -13 80 -36 114 -51 34
-16 69 -29 78 -29 9 0 14 -4 11 -9 -7 -11 22 -23 36 -14 7 3 8 1 4 -5 -6 -11
6 -16 27 -13 4 0 7 -3 7 -8 0 -5 16 -15 35 -22 19 -7 35 -16 35 -19 0 -4 6 -7
13 -7 17 0 110 -44 118 -56 3 -5 10 -8 15 -8 19 2 44 -11 39 -20 -3 -5 2 -6
11 -2 11 4 22 -1 30 -12 10 -13 14 -14 14 -5 0 10 4 9 13 -4 7 -9 22 -18 35
-19 12 0 22 -4 22 -8 0 -4 14 -9 31 -13 17 -3 28 -10 24 -16 -3 -5 0 -7 7 -5
8 3 28 -6 47 -19 18 -14 40 -22 49 -19 10 4 13 2 8 -5 -4 -8 -2 -10 8 -6 8 3
24 -4 35 -15 12 -12 24 -21 29 -21 16 0 42 -12 42 -18 0 -4 20 -14 45 -21 27
-8 42 -17 38 -24 -4 -6 0 -8 8 -5 12 5 14 -18 14 -138 0 -112 -3 -144 -13
-144 -7 0 -10 -4 -7 -10 3 -5 2 -10 -4 -10 -13 0 -98 -38 -227 -101 -55 -27
-105 -49 -111 -49 -6 0 -16 -7 -23 -15 -7 -8 -30 -20 -51 -27 -22 -6 -39 -15
-39 -20 0 -5 -4 -7 -9 -3 -5 3 -15 0 -23 -7 -7 -7 -24 -18 -38 -24 -14 -7 -56
-27 -95 -45 -38 -18 -73 -32 -77 -31 -5 1 -8 -3 -8 -8 0 -6 -5 -10 -10 -10 -6
0 -41 -14 -78 -32 -37 -17 -70 -30 -74 -30 -5 1 -8 -2 -8 -6 0 -4 -17 -14 -37
-21 -21 -8 -59 -27 -85 -43 -26 -16 -53 -26 -59 -22 -8 4 -9 3 -5 -4 4 -7 -6
-14 -26 -20 l-33 -8 -3 115 c-3 129 -8 119 83 157 28 11 66 28 85 36 19 9 47
19 62 22 15 3 33 12 40 20 7 7 31 19 53 26 22 7 45 16 50 20 6 5 13 8 17 7 4
-1 17 6 28 16 11 9 27 17 35 17 7 0 17 5 20 10 3 6 16 10 28 10 12 0 37 9 55
20 18 11 38 17 44 14 7 -4 8 -2 4 4 -5 8 1 12 14 12 12 0 18 4 15 11 -4 6 -1
9 6 8 8 -1 27 3 42 9 16 7 35 12 43 12 8 0 17 6 20 13 2 7 12 13 22 14 38 3
147 68 156 94 17 50 -9 78 -117 124 -53 23 -94 45 -90 49 5 5 -1 6 -13 2 -13
-4 -26 -1 -33 8 -7 8 -19 12 -27 9 -8 -3 -14 -1 -14 4 0 6 -24 18 -54 28 -30
10 -53 22 -51 25 4 6 -19 15 -85 35 -3 1 -32 15 -65 30 -33 16 -63 29 -67 31
-5 1 -9 2 -10 4 -2 1 -12 3 -22 5 -10 2 -22 7 -25 12 -6 8 -106 53 -128 57 -7
1 -16 5 -19 9 -4 4 -16 7 -26 7 -10 0 -18 4 -18 9 0 5 -13 12 -30 16 l-30 7 0
119 c0 108 7 138 25 109z"/>
<path d="M3915 3800 c-3 -6 1 -7 9 -4 18 7 21 14 7 14 -6 0 -13 -4 -16 -10z"/>
<path d="M4713 3425 c0 -8 4 -12 9 -9 5 3 6 10 3 15 -9 13 -12 11 -12 -6z"/>
<path d="M4807 3399 c7 -7 15 -10 18 -7 3 3 -2 9 -12 12 -14 6 -15 5 -6 -5z"/>
<path d="M4820 3376 c0 -2 8 -10 18 -17 15 -13 16 -12 3 4 -13 16 -21 21 -21
13z"/>
<path d="M4298 3273 c6 -3 10 -9 6 -14 -8 -14 2 -11 14 4 8 10 6 13 -11 14
-12 0 -16 -1 -9 -4z"/>
<path d="M4750 2936 c0 -2 7 -7 16 -10 8 -3 12 -2 9 4 -6 10 -25 14 -25 6z"/>
<path d="M4719 2903 c-13 -17 -13 -17 6 -3 11 8 22 16 24 17 2 2 0 3 -6 3 -6
0 -17 -8 -24 -17z"/>
<path d="M3908 2903 c7 -3 16 -2 19 1 4 3 -2 6 -13 5 -11 0 -14 -3 -6 -6z"/>
<path d="M3755 2851 c-3 -5 -2 -12 3 -15 5 -3 9 1 9 9 0 17 -3 19 -12 6z"/>
<path d="M4559 2857 c0 -1 -2 -10 -4 -20 -3 -15 -1 -16 13 -5 9 7 18 13 20 14
2 1 -4 4 -13 7 -8 4 -15 5 -16 4z"/>
<path d="M3710 2825 c-14 -8 -20 -14 -14 -15 5 0 19 7 30 15 24 18 16 19 -16
0z"/>
<path d="M4428 2773 c7 -3 16 -2 19 1 4 3 -2 6 -13 5 -11 0 -14 -3 -6 -6z"/>
<path d="M3820 2500 c-9 -6 -10 -10 -3 -10 6 0 15 5 18 10 8 12 4 12 -15 0z"/>
<path d="M2250 3999 c-125 -65 -346 -169 -358 -169 -7 0 -10 -4 -7 -10 3 -5 0
-7 -8 -4 -8 3 -18 0 -22 -5 -3 -6 -11 -8 -17 -5 -7 4 -8 2 -4 -4 4 -7 3 -12
-3 -12 -5 0 -22 -5 -38 -12 -15 -6 -30 -12 -33 -13 -30 -11 -80 -37 -85 -45
-3 -5 -15 -10 -26 -10 -13 0 -18 -4 -13 -12 4 -7 3 -8 -5 -4 -6 4 -40 -8 -74
-27 -34 -18 -68 -32 -74 -30 -7 3 -16 -2 -19 -11 -3 -9 -11 -16 -17 -16 -6 0
-75 -31 -154 -70 -79 -38 -148 -70 -153 -70 -6 0 -10 -4 -10 -8 0 -5 -6 -9
-13 -9 -22 0 -78 -46 -95 -78 -13 -24 -17 -64 -19 -202 -1 -99 2 -175 8 -178
5 -4 9 -14 9 -24 0 -16 38 -61 52 -61 3 0 32 -16 64 -35 32 -20 64 -33 71 -31
7 3 13 2 13 -2 0 -5 16 -14 35 -21 19 -7 35 -17 35 -22 0 -5 3 -8 8 -7 8 2 34
-9 152 -66 47 -23 90 -41 95 -42 18 -2 50 -18 68 -35 10 -9 38 -22 63 -29 25
-7 41 -17 37 -23 -3 -5 -1 -7 5 -3 6 3 13 2 17 -4 4 -6 10 -8 15 -5 5 3 12 1
15 -5 10 -16 157 -84 178 -82 9 0 15 -3 12 -8 -3 -4 15 -16 40 -27 25 -10 45
-21 45 -25 0 -4 7 -4 17 -1 9 4 14 2 10 -3 -3 -5 6 -11 20 -12 14 -1 31 -8 37
-16 6 -8 35 -21 64 -31 34 -11 50 -21 45 -28 -3 -7 -3 -9 1 -5 10 8 66 -11 66
-23 0 -5 18 -9 41 -9 22 0 38 4 34 9 -3 5 4 12 14 16 28 9 34 65 29 271 -4
166 -5 175 -28 199 -13 14 -30 25 -37 25 -8 0 -11 4 -8 10 3 5 0 7 -8 4 -8 -3
-18 0 -23 7 -5 8 -3 10 7 4 8 -5 11 -4 6 0 -4 5 -18 10 -30 12 -35 5 -106 34
-177 71 -36 19 -66 34 -67 34 -2 -1 -19 6 -38 14 -20 8 -41 12 -47 8 -6 -4 -8
-3 -4 4 3 6 -4 14 -16 18 -13 3 -53 21 -90 39 -36 18 -80 36 -97 40 -17 4 -31
10 -31 14 0 4 -19 14 -42 21 -83 24 -116 50 -73 56 8 1 45 17 82 34 153 73
220 100 229 92 4 -4 4 -2 1 4 -4 7 4 15 20 19 15 3 56 20 92 37 36 17 72 31
79 31 6 0 12 4 12 9 0 4 3 7 8 6 4 -1 23 4 42 11 41 16 47 18 61 20 5 0 7 6 4
11 -4 6 5 10 20 10 17 0 24 4 19 12 -5 8 -2 9 9 5 10 -3 17 -2 17 3 0 5 16 12
36 16 60 11 68 34 70 213 2 185 -3 260 -21 285 -22 30 -82 28 -145 -5z m123
-2 c16 -11 17 -34 15 -230 l-3 -218 -275 -120 c-151 -66 -345 -150 -430 -186
-85 -36 -157 -67 -160 -70 -2 -2 5 -6 16 -9 11 -3 206 -87 434 -187 l415 -183
3 -222 2 -222 -25 -10 c-32 -12 34 -42 -810 364 -329 158 -478 235 -497 256
l-28 30 0 176 c0 187 6 214 52 243 11 7 138 69 282 137 348 167 511 245 756
363 113 55 212 100 221 100 8 1 23 -5 32 -12z"/>
<path d="M2220 3862 c-103 -51 -351 -170 -755 -363 -187 -89 -343 -167 -347
-173 -4 -6 -8 -77 -8 -158 0 -142 1 -148 23 -162 12 -8 195 -98 407 -199 212
-102 470 -226 574 -276 104 -50 190 -91 192 -91 2 0 4 66 4 148 l-1 147 -454
199 c-250 110 -459 204 -465 210 -14 14 -13 52 3 63 10 9 138 65 802 354 l110
48 3 145 c1 81 -1 146 -5 145 -5 0 -42 -17 -83 -37z m64 -125 c0 -97 -3 -112
-17 -115 -10 -2 -14 -8 -11 -14 4 -6 2 -8 -4 -4 -6 3 -32 -5 -58 -19 -26 -14
-58 -25 -71 -25 -14 0 -21 -4 -18 -10 3 -5 3 -10 -2 -11 -40 -4 -123 -38 -123
-52 0 -4 -4 -6 -9 -3 -14 9 -42 -5 -34 -17 3 -5 2 -7 -4 -4 -13 8 -93 -23 -93
-35 0 -5 -3 -7 -8 -5 -4 3 -25 -3 -46 -14 -22 -10 -46 -19 -53 -19 -7 0 -13
-4 -13 -8 0 -5 -27 -17 -60 -27 -32 -10 -58 -21 -55 -24 2 -4 -8 -8 -22 -9
-15 -1 -34 -8 -42 -16 -9 -7 -29 -17 -46 -20 -16 -4 -33 -12 -36 -17 -3 -6
-12 -12 -20 -13 -33 -6 -68 -30 -78 -53 -14 -30 -14 -66 -1 -58 6 3 10 2 10
-4 0 -18 43 -51 66 -51 13 0 26 -4 29 -10 3 -5 13 -10 22 -10 9 0 24 -6 32
-13 9 -8 37 -21 63 -31 25 -9 49 -24 52 -32 3 -8 10 -12 16 -9 13 8 80 -13 80
-26 0 -5 9 -9 20 -9 11 0 20 -4 20 -10 0 -5 7 -7 15 -4 8 4 15 1 15 -5 0 -6 3
-10 8 -10 15 3 72 -14 72 -21 0 -5 17 -14 38 -20 20 -7 52 -21 70 -31 19 -11
37 -17 42 -14 4 3 11 -2 14 -11 4 -9 13 -14 21 -10 8 3 15 2 15 -3 0 -13 77
-44 91 -36 8 6 10 4 4 -5 -6 -10 -4 -12 9 -7 10 4 15 3 11 -3 -3 -6 0 -10 7
-11 73 -4 78 -14 78 -151 0 -66 -3 -118 -7 -116 -59 28 -89 44 -94 51 -3 5 -8
8 -10 8 -9 -3 -77 24 -128 51 -29 15 -59 28 -67 28 -8 0 -14 4 -14 9 0 10 -39
27 -53 23 -4 -1 -26 10 -50 25 -23 15 -45 26 -49 25 -5 -1 -8 3 -8 8 0 6 -5
10 -12 10 -11 0 -223 99 -258 121 -8 5 -24 13 -35 18 -11 5 -41 18 -65 29 -25
11 -55 23 -68 27 -12 4 -20 11 -17 16 3 5 0 6 -8 3 -8 -3 -22 2 -30 11 -9 9
-20 16 -24 17 -22 2 -53 19 -74 40 -12 13 -19 17 -15 11 4 -7 2 -13 -3 -13 -6
0 -11 4 -11 9 0 5 -9 11 -20 14 -18 5 -20 14 -20 104 0 54 -3 114 -6 134 -7
39 17 75 42 65 8 -3 13 0 11 6 -1 7 3 12 8 13 22 1 94 38 89 46 -3 5 2 6 10 3
9 -3 16 -1 16 6 0 6 5 8 11 4 6 -3 15 -1 19 7 5 7 15 14 24 15 26 4 76 28 76
37 0 5 4 6 9 3 5 -3 14 1 21 9 7 8 19 15 26 15 8 0 22 4 32 9 9 5 35 17 57 27
22 11 46 25 53 32 7 6 22 12 32 12 10 0 21 4 25 9 3 5 19 12 35 16 18 4 27 11
23 18 -4 6 0 8 10 4 8 -3 21 0 27 8 6 8 24 17 40 20 16 4 45 17 65 31 20 13
47 27 60 30 14 3 25 10 25 15 0 5 8 9 18 9 24 0 82 29 82 41 0 5 3 8 8 8 21
-4 42 2 38 10 -4 5 3 7 14 4 11 -3 20 -1 20 5 0 6 16 16 35 23 19 7 35 17 35
21 0 4 12 8 28 8 l27 0 -1 -113z"/>
<path d="M1673 3655 c0 -8 4 -12 9 -9 5 3 6 10 3 15 -9 13 -12 11 -12 -6z"/>
<path d="M2235 3551 c-3 -5 -2 -12 3 -15 5 -3 9 1 9 9 0 17 -3 19 -12 6z"/>
<path d="M1426 3167 c3 -10 9 -15 12 -12 3 3 0 11 -7 18 -10 9 -11 8 -5 -6z"/>
<path d="M1730 3036 c0 -2 7 -7 16 -10 8 -3 12 -2 9 4 -6 10 -25 14 -25 6z"/>
<path d="M2233 2825 c0 -8 4 -12 9 -9 5 3 6 10 3 15 -9 13 -12 11 -12 -6z"/>
<path d="M2339 2733 c-13 -16 -12 -17 4 -4 16 13 21 21 13 21 -2 0 -10 -8 -17
-17z"/>
<path d="M1880 2586 c0 -2 7 -7 16 -10 8 -3 12 -2 9 4 -6 10 -25 14 -25 6z"/>
<path d="M2155 2450 c-3 -6 1 -7 9 -4 18 7 21 14 7 14 -6 0 -13 -4 -16 -10z"/>
<path d="M773 3469 c-38 -11 -44 -19 -45 -59 -1 -16 -4 -28 -7 -26 -3 3 -15
-2 -26 -10 -10 -8 -16 -14 -12 -14 4 0 2 -11 -3 -25 -13 -35 19 -71 58 -67 20
2 30 -3 37 -20 14 -32 67 -33 96 -2 11 12 18 28 14 34 -8 12 34 57 48 52 5 -1
5 3 1 10 -4 7 -9 23 -10 37 -4 30 -29 46 -68 42 -16 -2 -26 1 -22 7 3 5 -2 19
-12 30 -14 16 -23 18 -49 11z m43 -45 c7 -28 0 -38 -32 -48 -17 -5 -22 0 -31
28 -10 32 -9 35 11 39 41 8 46 7 52 -19z m88 -55 c4 -19 1 -29 -10 -33 -33
-13 -52 -6 -58 20 -4 15 -6 27 -4 28 19 12 54 22 59 17 4 -3 9 -18 13 -32z
m-133 -26 c11 -30 5 -39 -32 -48 -22 -5 -27 -2 -33 17 -12 45 -11 47 47 57 4
0 12 -11 18 -26z m83 -55 c7 -37 8 -36 -28 -40 -25 -2 -30 1 -37 24 -5 21 -3
30 9 38 32 18 49 11 56 -22z"/>
<path d="M5146 3380 c-37 -19 -54 -35 -67 -65 -31 -70 -22 -144 21 -183 13
-12 13 -13 0 -7 -8 4 -4 -3 10 -14 14 -11 31 -21 38 -21 7 0 11 -4 8 -8 -2 -4
23 -9 57 -10 53 -1 68 2 102 26 85 59 97 172 28 249 -26 28 -67 50 -85 45 -5
-1 -8 1 -8 6 0 16 -57 6 -104 -18z m146 -21 c24 -13 64 -69 71 -100 16 -65
-45 -151 -117 -165 -26 -4 -47 0 -81 16 -113 55 -104 210 15 259 26 11 82 6
112 -10z"/>
<path d="M5185 3274 c-26 -26 -16 -76 18 -92 24 -12 31 -11 53 2 31 21 34 80
5 96 -28 15 -57 12 -76 -6z m67 -44 c-1 -13 -8 -29 -14 -35 -8 -7 -9 -6 -3 4
6 11 4 13 -8 8 -11 -4 -18 1 -22 14 -4 10 -12 17 -18 13 -7 -3 -3 2 8 11 30
24 61 16 57 -15z"/>
<path d="M5155 3160 c10 -11 20 -20 23 -20 3 0 -3 9 -13 20 -10 11 -20 20 -23
20 -3 0 3 -9 13 -20z"/>
<path d="M5273 3145 c0 -8 4 -15 9 -15 4 0 8 4 8 9 0 6 -4 12 -8 15 -5 3 -9
-1 -9 -9z"/>
<path d="M1889 2222 c-51 -33 -59 -47 -59 -98 0 -55 38 -110 68 -99 7 3 10 0
7 -5 -6 -10 0 -12 35 -12 42 0 49 3 84 38 28 28 36 44 36 71 0 35 -26 103 -38
101 -20 -2 -32 3 -27 12 3 6 0 10 -7 10 -7 0 -22 3 -33 6 -12 3 -38 -7 -66
-24z m94 -13 c27 -12 57 -58 57 -86 0 -34 -37 -81 -70 -88 -59 -13 -121 35
-120 92 1 43 50 92 92 93 9 0 28 -5 41 -11z"/>
<path d="M1933 2153 c-18 -6 -16 -42 2 -49 8 -4 22 -1 30 6 24 20 -1 54 -32
43z"/>
<path d="M4297 2226 c-29 -24 -43 -61 -27 -71 5 -3 10 -9 10 -13 0 -8 -279 -6
-287 2 -3 2 -16 2 -30 0 -57 -10 -85 -91 -40 -116 33 -18 85 -22 278 -22 193
1 235 9 245 50 3 13 4 31 0 39 -3 8 -2 15 2 16 111 7 132 17 132 62 0 36 -8
51 -30 55 -8 2 -16 8 -18 13 -2 5 -16 9 -30 9 -20 0 -23 -3 -13 -9 9 -6 -4 -7
-33 -5 -25 2 -66 6 -90 8 -34 2 -50 -2 -69 -18z m258 -51 l0 -30 -130 0 c-117
0 -130 2 -133 18 -9 45 0 48 135 45 l128 -3 0 -30z m-137 -77 c16 -16 15 -33
-4 -52 -13 -14 -49 -16 -235 -16 -133 0 -228 4 -240 10 -18 10 -26 50 -12 63
12 13 478 8 491 -5z"/>
<path d="M4010 1890 c-8 -5 -10 -10 -5 -10 6 0 5 -4 -1 -8 -13 -8 -25 -164
-12 -156 4 3 5 -2 2 -11 -6 -14 -11 -12 -37 12 -16 15 -26 21 -22 13 5 -8 -3
-5 -16 7 -34 31 -107 40 -150 19 -17 -9 -38 -16 -46 -16 -27 0 -103 -92 -103
-125 0 -8 -5 -15 -11 -15 -5 0 -7 5 -4 10 9 15 -44 119 -68 131 -15 9 -18 8
-11 -3 4 -8 0 -7 -12 3 -20 17 -32 20 -91 21 -62 1 -132 -16 -146 -36 -5 -7
-16 -1 -31 18 -18 22 -29 27 -43 21 -10 -4 -24 -9 -31 -9 -7 -1 -16 -7 -21
-14 -7 -11 -10 -11 -22 0 -8 7 -30 14 -49 15 -19 0 -38 1 -42 2 -5 1 -7 18 -6
39 0 21 -4 48 -11 60 -11 22 -15 22 -212 22 -115 0 -198 -4 -195 -9 3 -5 -1
-11 -9 -15 -20 -7 -20 -85 -1 -111 11 -15 25 -19 64 -17 28 1 53 -2 56 -6 3
-5 6 -83 6 -173 2 -194 4 -199 86 -199 42 0 55 4 64 19 6 12 10 92 10 190 l0
170 43 -2 c23 0 49 1 57 4 8 3 11 4 7 1 -11 -6 -7 -345 4 -363 5 -8 9 -9 9 -4
0 6 3 5 8 -1 11 -17 88 -24 107 -10 12 9 16 33 18 108 2 78 6 100 21 117 11
12 27 21 36 21 9 0 29 11 43 24 l26 24 22 -21 22 -20 -22 -9 c-12 -4 -28 -21
-35 -38 -7 -17 -15 -28 -17 -25 -3 2 -5 -21 -6 -52 -1 -59 20 -109 40 -96 6 3
7 1 3 -5 -4 -6 6 -18 24 -27 16 -8 30 -13 30 -11 0 3 14 1 31 -4 21 -6 43 -5
70 4 22 8 47 12 57 10 67 -14 93 -11 107 10 8 12 12 34 9 50 -3 17 -1 25 6 21
5 -3 10 -1 10 5 0 7 6 10 13 7 6 -2 12 -8 11 -13 0 -5 13 -22 29 -39 16 -16
26 -23 22 -15 -4 8 2 5 12 -7 31 -37 100 -48 173 -28 48 14 59 18 56 24 -2 3
7 16 20 29 l24 22 6 -25 c8 -33 32 -45 87 -45 53 0 65 12 68 69 3 47 14 62 24
32 3 -11 12 -22 20 -25 8 -3 15 -12 15 -21 0 -31 34 -52 91 -58 46 -4 59 -2
72 13 13 15 13 22 2 43 -7 14 -11 28 -7 31 3 3 0 6 -7 6 -6 0 -16 10 -22 23
-13 29 -29 55 -56 94 -20 27 -21 32 -7 37 9 4 14 9 11 12 -3 3 14 25 39 47 45
43 62 81 41 94 -7 4 -38 9 -69 9 -59 2 -83 -9 -105 -50 -6 -11 -18 -21 -27
-22 -14 -2 -16 7 -10 73 6 77 -6 129 -29 130 -7 0 -30 3 -52 7 -22 3 -47 2
-55 -4z m102 -159 l3 -139 60 69 60 68 60 1 59 0 -68 -69 -69 -70 72 -112 c40
-62 65 -109 56 -105 -9 3 -35 6 -59 6 -40 0 -42 1 -85 70 l-44 70 -24 -22
c-18 -17 -23 -32 -23 -72 l0 -51 -45 0 -45 0 0 248 0 247 45 0 44 0 3 -139z
m-1112 74 l0 -45 -70 0 -70 0 0 -192 0 -193 -50 0 -50 0 0 193 0 192 -70 0
-70 0 0 45 0 45 190 0 190 0 0 -45z m220 -163 c-81 -17 -100 -49 -100 -172 l0
-90 -50 0 -50 0 0 175 0 175 51 0 51 0 -7 -37 -6 -38 28 33 c15 18 42 36 58
41 30 8 30 7 35 -38 4 -36 2 -47 -10 -49z m676 77 c18 -5 39 -17 47 -27 14
-15 13 -20 -12 -48 -28 -31 -28 -31 -52 -13 -13 10 -40 19 -61 19 -29 0 -42
-7 -63 -32 -23 -27 -26 -39 -22 -77 9 -80 75 -113 143 -72 l32 19 26 -27 26
-27 -22 -21 c-78 -73 -219 -50 -274 43 -64 109 -8 245 112 273 40 9 64 7 120
-10z m-375 -12 c47 -31 58 -72 58 -212 l1 -120 -45 0 c-41 0 -45 2 -45 24 l0
24 -23 -21 c-46 -43 -135 -41 -181 5 -38 38 -37 101 3 145 29 32 31 33 115 33
93 0 104 7 65 46 -18 18 -30 20 -73 16 -28 -2 -58 -8 -67 -11 -13 -6 -20 1
-29 29 -7 20 -10 38 -8 39 15 13 74 25 129 25 53 1 73 -3 100 -22z m463 -149
c-1 -51 -2 -97 -3 -103 -1 -5 -10 4 -21 20 -11 17 -20 26 -20 20 0 -5 -5 -3
-10 5 -8 13 -14 13 -42 2 -56 -22 -126 -23 -112 -1 3 5 0 9 -5 9 -15 0 -13 50
2 80 8 15 20 24 30 22 9 -2 17 2 17 9 0 8 4 8 15 -1 8 -7 15 -10 15 -6 0 3 9
-3 20 -14 27 -27 35 -26 73 15 18 19 35 34 38 35 3 0 5 -42 3 -92z m-684 28
c0 -2 -7 -7 -16 -10 -8 -3 -12 -2 -9 4 6 10 25 14 25 6z m314 -126 c-6 -6 -10
-3 -10 10 0 13 4 16 10 10 7 -7 7 -13 0 -20z"/>
<path d="M3368 1519 c-21 -12 -24 -49 -6 -67 7 -7 29 -12 50 -12 45 0 81 30
76 63 -3 19 -10 22 -53 24 -27 2 -58 -2 -67 -8z m84 -27 c-6 -2 -10 -8 -7 -12
3 -5 -4 -7 -15 -5 -11 2 -20 -1 -20 -8 0 -8 -3 -8 -12 1 -18 18 7 40 40 34 15
-3 21 -7 14 -10z"/>
<path d="M1143 1863 c-20 -18 -21 -27 -22 -243 0 -269 1 -270 84 -270 64 0 75
12 75 89 0 52 17 69 54 55 25 -9 108 15 129 38 9 11 17 17 17 12 0 -5 13 7 30
26 l29 35 2 -80 c1 -110 5 -150 13 -163 10 -17 111 -15 125 1 6 8 13 52 16 98
6 111 9 128 18 122 4 -2 7 0 7 5 0 6 7 13 16 16 10 4 13 2 8 -7 -5 -8 -2 -8 9
2 18 14 16 16 32 -35 3 -9 1 -12 -6 -8 -8 4 -9 -4 -4 -27 9 -47 30 -90 57
-119 13 -13 22 -28 20 -33 -1 -5 2 -6 7 -3 5 3 11 -1 14 -8 10 -25 127 -37
177 -18 14 5 27 9 30 8 3 0 20 13 37 31 17 17 33 30 35 27 3 -2 5 4 5 14 0 22
-32 64 -42 54 -5 -4 -5 -1 -1 6 4 7 12 10 17 6 6 -3 19 2 30 12 22 20 21 32
19 -126 -1 -93 1 -109 20 -130 16 -18 29 -23 61 -22 53 2 79 30 79 85 0 38 1
39 28 31 52 -15 139 -3 126 18 -4 7 -3 8 4 4 16 -10 60 32 84 79 22 41 34 175
17 175 -5 0 -9 8 -9 18 0 10 -8 27 -18 38 -10 10 -21 27 -25 36 -13 36 -125
66 -172 47 -17 -7 -33 -12 -37 -11 -5 1 -8 -4 -8 -11 0 -9 -2 -9 -9 1 -12 20
-102 23 -123 4 -10 -8 -18 -21 -18 -28 0 -7 -6 -15 -12 -17 -9 -4 -8 -6 2 -6
12 -1 15 -10 12 -43 l-4 -42 -16 30 c-9 16 -16 33 -17 39 0 12 -97 85 -110 83
-5 -1 -18 2 -28 7 -9 4 -30 4 -45 1 -15 -4 -33 -7 -39 -8 -7 -1 -13 -5 -13
-10 0 -5 -4 -6 -10 -3 -12 7 -53 -19 -43 -28 3 -4 0 -7 -9 -7 -8 0 -20 -10
-26 -22 -10 -22 -11 -21 -11 10 -1 34 -30 72 -57 72 -8 0 -12 -4 -9 -10 3 -6
-1 -7 -9 -4 -9 3 -16 2 -16 -3 0 -11 -31 -13 -45 -3 -21 14 -95 11 -112 -5
-13 -13 -18 -14 -24 -3 -5 7 -9 20 -9 28 0 24 -59 80 -91 87 -16 3 -27 9 -24
13 2 4 -53 8 -123 9 -111 2 -131 0 -149 -16z m303 -39 c45 -33 64 -66 70 -119
4 -40 1 -59 -18 -94 -30 -58 -75 -81 -173 -88 l-75 -6 0 -71 0 -71 -45 1 -45
1 -3 237 -2 237 132 -3 c114 -3 135 -6 159 -24z m334 -132 c0 -48 -1 -49 -37
-58 -57 -14 -74 -53 -75 -164 l-1 -90 -41 0 c-23 0 -46 -4 -52 -10 -6 -6 -8
59 -6 175 l3 185 50 0 50 0 -7 -37 -6 -38 31 37 c17 20 41 39 54 41 12 2 25 5
30 6 4 0 7 -21 7 -47z m712 22 c117 -59 112 -272 -8 -329 -47 -22 -116 -16
-148 14 -12 11 -24 21 -27 21 -2 0 -3 -36 -1 -80 l4 -80 -51 0 -51 0 0 235 0
235 51 0 c50 0 51 -1 45 -25 -8 -31 -4 -31 29 -1 40 37 96 40 157 10z m-422
-7 c45 -29 69 -74 77 -136 l6 -51 -127 0 c-81 0 -126 -4 -126 -10 0 -6 11 -22
25 -35 29 -30 80 -33 127 -9 29 15 31 14 54 -7 23 -22 23 -23 6 -42 -67 -76
-227 -55 -279 38 -47 83 -21 200 56 252 47 32 135 32 181 0z m-53 -227 c3 -9
1 -11 -4 -5 -11 14 -33 17 -33 4 0 -5 -5 -7 -11 -3 -8 4 -7 9 2 15 19 12 42 7
46 -11z"/>
<path d="M1250 1684 l0 -76 64 4 c78 5 106 25 106 75 0 53 -28 73 -105 73
l-65 0 0 -76z m125 35 c-4 -5 -1 -9 5 -9 5 0 9 -13 8 -29 -1 -16 -5 -28 -9
-25 -4 2 -10 0 -13 -4 -3 -5 -22 -9 -43 -8 -38 1 -38 2 -41 45 l-3 43 46 -7
c36 -5 45 -4 40 6 -5 8 -4 10 4 5 6 -4 9 -12 6 -17z"/>
<path d="M2343 1635 c-54 -38 -50 -141 7 -170 43 -22 68 -18 101 14 61 61 27
171 -53 171 -19 0 -43 -7 -55 -15z m31 -27 c-6 -10 -4 -10 7 -2 8 5 20 9 27 8
6 -1 17 -2 22 -3 6 0 10 -10 10 -22 0 -11 4 -18 9 -15 5 3 8 -5 7 -19 0 -14
-5 -25 -9 -25 -5 0 -6 -4 -3 -8 3 -5 -4 -16 -14 -25 -11 -10 -22 -12 -25 -6
-4 5 -12 6 -18 2 -15 -9 -41 -14 -33 -6 3 3 -1 15 -9 27 -20 28 -19 49 6 80
21 27 36 36 23 14z"/>
<path d="M1944 1648 c-18 -8 -44 -46 -44 -63 0 -3 36 -5 80 -5 50 0 80 4 80
11 0 18 -57 69 -77 68 -10 0 -28 -5 -39 -11z m49 -24 c11 -11 -3 -24 -18 -18
-8 4 -12 10 -9 15 6 11 18 12 27 3z"/>
<path d="M4493 1763 c-13 -2 -23 -9 -23 -14 0 -6 -4 -8 -9 -4 -5 3 -16 -2 -25
-11 -9 -8 -22 -12 -28 -8 -7 4 -10 4 -6 0 8 -9 -14 -36 -24 -30 -3 2 -5 -4 -3
-13 1 -10 -4 -25 -11 -34 -15 -17 -35 -105 -26 -114 3 -3 7 -22 9 -42 2 -20 8
-42 13 -48 6 -7 7 -15 3 -18 -3 -4 3 -10 13 -13 10 -4 30 -20 44 -35 27 -29
101 -51 149 -43 66 11 80 17 114 51 40 38 42 65 9 90 -8 7 -12 16 -9 20 4 3 7
3 7 -1 0 -5 11 -1 25 8 l25 16 0 -42 c0 -24 3 -54 6 -68 4 -20 3 -22 -5 -10
-6 8 -11 11 -11 5 0 -26 49 -55 93 -55 61 0 73 16 68 96 -4 82 21 154 54 154
12 0 32 8 43 19 30 25 31 102 2 131 -25 25 -37 25 -78 0 -24 -15 -34 -17 -37
-8 -8 21 -88 21 -111 1 -23 -20 -41 -58 -22 -47 8 5 9 2 5 -10 -4 -10 -7 -36
-8 -59 -1 -37 -2 -39 -9 -15 -13 44 -50 102 -77 122 -15 11 -23 15 -20 9 4 -6
-10 -2 -30 8 -36 18 -63 21 -110 12z m487 -72 c0 -45 -2 -49 -28 -54 -16 -3
-39 -15 -53 -25 -22 -19 -24 -28 -27 -125 l-4 -105 -49 -4 -49 -3 0 178 0 177
50 0 51 0 -7 -37 -6 -38 31 37 c17 20 41 39 54 41 12 2 25 5 30 6 4 0 7 -21 7
-48z m-334 9 c35 -33 64 -96 64 -142 l0 -38 -125 0 -126 0 15 -29 c24 -45 80
-55 138 -25 30 15 31 15 57 -11 26 -26 26 -26 6 -42 -94 -72 -231 -50 -282 47
-46 86 -21 195 57 248 30 20 44 23 102 20 54 -3 72 -8 94 -28z m-81 -220 c-27
-12 -43 -12 -25 0 8 5 22 9 30 9 10 0 8 -3 -5 -9z m-124 -107 c13 -16 12 -17
-3 -4 -17 13 -22 21 -14 21 2 0 10 -8 17 -17z"/>
<path d="M4489 1631 c-16 -16 -29 -34 -29 -40 0 -7 30 -11 80 -11 44 0 80 2
80 5 0 18 -26 55 -47 64 -37 17 -52 14 -84 -18z m52 -24 c-10 -9 -11 -8 -5 6
3 10 9 15 12 12 3 -3 0 -11 -7 -18z"/>
<path d="M4165 1709 c-4 -6 -5 -12 -2 -15 2 -3 7 2 10 11 7 17 1 20 -8 4z"/>
</g>
</svg>
